<svg width="93" height="93" viewBox="0 0 93 93"  fill="white" xmlns="http://www.w3.org/2000/svg">
<path d="M81.375 5.8125C82.9166 5.8125 84.395 6.42489 85.4851 7.51494C86.5751 8.605 87.1875 10.0834 87.1875 11.625V81.375C87.1875 82.9166 86.5751 84.395 85.4851 85.4851C84.395 86.5751 82.9166 87.1875 81.375 87.1875H11.625C10.0834 87.1875 8.605 86.5751 7.51494 85.4851C6.42489 84.395 5.8125 82.9166 5.8125 81.375V11.625C5.8125 10.0834 6.42489 8.605 7.51494 7.51494C8.605 6.42489 10.0834 5.8125 11.625 5.8125H81.375ZM11.625 0C8.54186 0 5.58499 1.22477 3.40488 3.40488C1.22477 5.58499 0 8.54186 0 11.625L0 81.375C0 84.4581 1.22477 87.415 3.40488 89.5951C5.58499 91.7752 8.54186 93 11.625 93H81.375C84.4581 93 87.415 91.7752 89.5951 89.5951C91.7752 87.415 93 84.4581 93 81.375V11.625C93 8.54186 91.7752 5.58499 89.5951 3.40488C87.415 1.22477 84.4581 0 81.375 0L11.625 0Z"/>
<path d="M39.8386 27.0049C40.1092 27.2748 40.324 27.5956 40.4705 27.9486C40.617 28.3017 40.6924 28.6802 40.6924 29.0625C40.6924 29.4448 40.617 29.8233 40.4705 30.1764C40.324 30.5295 40.1092 30.8502 39.8386 31.1201L24.4529 46.5L39.8386 61.8799C40.3843 62.4256 40.6909 63.1657 40.6909 63.9375C40.6909 64.7093 40.3843 65.4494 39.8386 65.9951C39.2929 66.5409 38.5527 66.8474 37.781 66.8474C37.0092 66.8474 36.269 66.5409 35.7233 65.9951L18.2858 48.5576C18.0152 48.2877 17.8004 47.967 17.6539 47.6139C17.5074 47.2608 17.432 46.8823 17.432 46.5C17.432 46.1177 17.5074 45.7392 17.6539 45.3861C17.8004 45.0331 18.0152 44.7123 18.2858 44.4424L35.7233 27.0049C35.9933 26.7342 36.314 26.5195 36.6671 26.373C37.0202 26.2265 37.3987 26.1511 37.781 26.1511C38.1632 26.1511 38.5417 26.2265 38.8948 26.373C39.2479 26.5195 39.5686 26.7342 39.8386 27.0049ZM53.1608 27.0049C52.8902 27.2748 52.6754 27.5956 52.5289 27.9486C52.3824 28.3017 52.307 28.6802 52.307 29.0625C52.307 29.4448 52.3824 29.8233 52.5289 30.1764C52.6754 30.5295 52.8902 30.8502 53.1608 31.1201L68.5465 46.5L53.1608 61.8799C52.6151 62.4256 52.3085 63.1657 52.3085 63.9375C52.3085 64.7093 52.6151 65.4494 53.1608 65.9951C53.7065 66.5409 54.4467 66.8474 55.2185 66.8474C55.9902 66.8474 56.7304 66.5409 57.2761 65.9951L74.7136 48.5576C74.9842 48.2877 75.199 47.967 75.3455 47.6139C75.492 47.2608 75.5674 46.8823 75.5674 46.5C75.5674 46.1177 75.492 45.7392 75.3455 45.3861C75.199 45.0331 74.9842 44.7123 74.7136 44.4424L57.2761 27.0049C57.0061 26.7342 56.6854 26.5195 56.3323 26.373C55.9792 26.2265 55.6007 26.1511 55.2185 26.1511C54.8362 26.1511 54.4577 26.2265 54.1046 26.373C53.7515 26.5195 53.4308 26.7342 53.1608 27.0049Z"/>
</svg>
